# xmcd CD database file
#
# Track frame offsets:
#	150
#	19925
#	35670
#
# Disc length: 738 seconds
#
# Revision: 0
# Processed by: cddbd v1.5PL3 Copyright (c) Steve Scherf et al.
# Submitted via: CDex 1.50beta8
#
DISCID=1f02e003
DTITLE=Cornelius - Perfect Rainbow
DYEAR=1900
DGENRE=Rock
TTITLE0=Perfect Rainbow
TTITLE1=Pele
TTITLE2=Perfect Rainbow (Instrumental)
EXTD=
EXTT0=
EXTT1=
EXTT2=
PLAYORDER=
